# xmcd
#
# Track frame offsets:
#	150
#	16497
#	40047
#	64395
#	75612
#	92072
#	110237
#	129195
#	143317
#	157690
#	171450
#	186822
#	202802
#	216960
#	232760
#	245772
#	258570
#	271002
#	286610
#
# Disc length: 3979 seconds
# Revision: 8
# Processed by: cddbd v1.5.2PL0 Copyright (c) Steve Scherf et al.
# Submitted via: dBpowerAMP V12.0
#
DISCID=fc0f8913
DTITLE=Various Artist - The Essential Kris Kristofferson, Disc 2 of 2
DYEAR=2004
DGENRE=Country
TTITLE0=Kris Kristofferson - Border Lord
TTITLE1=Kris Kristofferson - The Sabre and the Rose
TTITLE2=Kris Kristofferson - Broken Freedom Song
TTITLE3=Kris Kristofferson - Jesus Was a Capricorn
TTITLE4=Kris Kristofferson - Shandy (The Perfect Disguise)
TTITLE5=Kris Kristofferson - Sugar Man
TTITLE6=Kris Kristofferson - The Last Time
TTITLE7=Kris Kristofferson - Nobody Wins
TTITLE8=Kris Kristofferson feat Rita Coolidge - I'd Rather Be Sorry
TTITLE9=Kris Kristofferson with Waylon Jennings, Willie Nelson and Johnny Cash - Highwayman
TTITLE10=Kris Kristofferson - Don't Cuss the Fiddle
TTITLE11=Kris Kristofferson - The Bigger the Fool, The Harder the Fall
TTITLE12=Kris Kristofferson - Stranger
TTITLE13=Kris Kristofferson - If You Don't Like Hank Williams
TTITLE14=Kris Kristofferson - Here Comes That Rainbow Again
TTITLE15=Kris Kristofferson - Once More With Feeling
TTITLE16=Kris Kristofferson feat. Willie Nelson - How Do You Feel About Foolin' Around
TTITLE17=Kris Kristofferson - Why Me
TTITLE18=Kris Kristofferson - Please Don't Tell Me How the Story Ends
EXTD=
EXTT0=
EXTT1=
EXTT2=
EXTT3=
EXTT4=
EXTT5=
EXTT6=
EXTT7=
EXTT8=
EXTT9=
EXTT10=
EXTT11=
EXTT12=
EXTT13=
EXTT14=
EXTT15=
EXTT16=
EXTT17=
EXTT18=
PLAYORDER=
